HIERARCHY
ROOT reference
{
  OFFSET 0 0 0
  CHANNELS 6 Xposition Yposition Zposition Zrotation Xrotation Yrotation
  JOINT Hips
  {
    OFFSET 370.543 87.5 183.721
    CHANNELS 3 Zrotation Xrotation Yrotation
    JOINT RightUpLeg
    {
      OFFSET -9.29072 -1.53718 -0.00769521
      CHANNELS 3 Zrotation Xrotation Yrotation
      JOINT RightLeg
      {
        OFFSET 0.000649198 -41.8926 0.0287464
        CHANNELS 3 Zrotation Xrotation Yrotation
        JOINT RightFoot
        {
          OFFSET -0.131981 -42.8927 0.241786
          CHANNELS 3 Zrotation Xrotation Yrotation
          End Site
          {
            OFFSET 0 -7.69 17.5
          }
        }
      }
    }
    JOINT LeftUpLeg
    {
      OFFSET 9.29816 -1.6623 -0.0330144
      CHANNELS 3 Zrotation Xrotation Yrotation
      JOINT LeftLeg
      {
        OFFSET 0.0555409 -41.8801 -0.0492089
        CHANNELS 3 Zrotation Xrotation Yrotation
        JOINT LeftFoot
        {
          OFFSET 0.737583 -41.1094 -0.206555
          CHANNELS 3 Zrotation Xrotation Yrotation
          End Site
          {
            OFFSET 0 -7.69 17.5
          }
        }
      }
    }
    JOINT Spine
    {
      OFFSET 0.0742767 14.2946 0.0485675
      CHANNELS 3 Zrotation Xrotation Yrotation
      JOINT Spine1
      {
        OFFSET 0.0332084 9.70841 0.0159593
        CHANNELS 3 Zrotation Xrotation Yrotation
        JOINT Spine2
        {
          OFFSET 0.0388468 10.1231 0.00288192
          CHANNELS 3 Zrotation Xrotation Yrotation
          JOINT Spine3
          {
            OFFSET 0.0300771 9.71993 0.00776905
            CHANNELS 3 Zrotation Xrotation Yrotation
            JOINT Neck
            {
              OFFSET 0.058413 10.382 0.0516165
              CHANNELS 3 Zrotation Xrotation Yrotation
              JOINT Head
              {
                OFFSET 0.0298281 9.47849 0.0268718
                CHANNELS 3 Zrotation Xrotation Yrotation
                End Site
                {
                  OFFSET 0 15.95 0
                }
              }
            }
            JOINT RightShoulder
            {
              OFFSET -3.15612 6.91385 0.0353801
              CHANNELS 3 Zrotation Xrotation Yrotation
              JOINT RightArm
              {
                OFFSET -12.7781 -0.0057607 0.0332486
                CHANNELS 3 Zrotation Xrotation Yrotation
                JOINT RightForeArm
                {
                  OFFSET -26.4999 -0.0425897 0.0409183
                  CHANNELS 3 Zrotation Xrotation Yrotation
                  JOINT RightHand
                  {
                    OFFSET -25.993 -0.0294641 0.00108206
                    CHANNELS 3 Zrotation Xrotation Yrotation
                    JOINT RightHandThumb1
                    {
                      OFFSET -2.48905 0.190105 3.12053
                      CHANNELS 3 Zrotation Xrotation Yrotation
                      JOINT RightHandThumb2
                      {
                        OFFSET -3.68274 0 0
                        CHANNELS 3 Zrotation Xrotation Yrotation
                        JOINT RightHandThumb3
                        {
                          OFFSET -2.55832 0 0
                          CHANNELS 3 Zrotation Xrotation Yrotation
                          End Site
                          {
                            OFFSET -2.194 0 0
                          }
                        }
                      }
                    }
                    JOINT RightInHandIndex
                    {
                      OFFSET -3.22368 0.508421 1.97842
                      CHANNELS 3 Zrotation Xrotation Yrotation
                      JOINT RightHandIndex1
                      {
                        OFFSET -5.21684 -0.091368 0.999158
                        CHANNELS 3 Zrotation Xrotation Yrotation
                        JOINT RightHandIndex2
                        {
                          OFFSET -3.61937 0 0
                          CHANNELS 3 Zrotation Xrotation Yrotation
                          JOINT RightHandIndex3
                          {
                            OFFSET -2.0521 0 0
                            CHANNELS 3 Zrotation Xrotation Yrotation
                            End Site
                            {
                              OFFSET -1.805 0 0
                            }
                          }
                        }
                      }
                    }
                    JOINT RightInHandMiddle
                    {
                      OFFSET -3.38211 0.517263 0.756737
                      CHANNELS 3 Zrotation Xrotation Yrotation
                      JOINT RightHandMiddle1
                      {
                        OFFSET -5.17411 -0.084 0.313895
                        CHANNELS 3 Zrotation Xrotation Yrotation
                        JOINT RightHandMiddle2
                        {
                          OFFSET -3.94947 0 0
                          CHANNELS 3 Zrotation Xrotation Yrotation
                          JOINT RightHandMiddle3
                          {
                            OFFSET -2.47579 0 0
                            CHANNELS 3 Zrotation Xrotation Yrotation
                            End Site
                            {
                              OFFSET -1.975 0 0
                            }
                          }
                        }
                      }
                    }
                    JOINT RightInHandRing
                    {
                      OFFSET -3.36516 0.537895 -0.128947
                      CHANNELS 3 Zrotation Xrotation Yrotation
                      JOINT RightHandRing1
                      {
                        OFFSET -4.63474 -0.022105 -0.478947
                        CHANNELS 3 Zrotation Xrotation Yrotation
                        JOINT RightHandRing2
                        {
                          OFFSET -3.44238 0 0
                          CHANNELS 3 Zrotation Xrotation Yrotation
                          JOINT RightHandRing3
                          {
                            OFFSET -2.3881 0 0
                            CHANNELS 3 Zrotation Xrotation Yrotation
                            End Site
                            {
                              OFFSET -1.857 0 0
                            }
                          }
                        }
                      }
                    }
                    JOINT RightInHandPinky
                    {
                      OFFSET -3.16105 0.469368 -1.20179
                      CHANNELS 3 Zrotation Xrotation Yrotation
                      JOINT RightHandPinky1
                      {
                        OFFSET -4.14105 -0.022105 -1.09053
                        CHANNELS 3 Zrotation Xrotation Yrotation
                        JOINT RightHandPinky2
                        {
                          OFFSET -2.75653 0 0
                          CHANNELS 3 Zrotation Xrotation Yrotation
                          JOINT RightHandPinky3
                          {
                            OFFSET -1.74189 0 0
                            CHANNELS 3 Zrotation Xrotation Yrotation
                            End Site
                            {
                              OFFSET -1.645 0 0
                            }
                          }
                        }
                      }
                    }
                  }
                }
              }
            }
            JOINT LeftShoulder
            {
              OFFSET 3.24463 6.9123 -0.0189685
              CHANNELS 3 Zrotation Xrotation Yrotation
              JOINT LeftArm
              {
                OFFSET 12.8793 -0.0485389 -0.0634723
                CHANNELS 3 Zrotation Xrotation Yrotation
                JOINT LeftForeArm
                {
                  OFFSET 26.4894 0.00252616 -0.136149
                  CHANNELS 3 Zrotation Xrotation Yrotation
                  JOINT LeftHand
                  {
                    OFFSET 26.005 0.0292639 -0.0166184
                    CHANNELS 3 Zrotation Xrotation Yrotation
                    JOINT LeftHandThumb1
                    {
                      OFFSET 2.48905 0.190105 3.12053
                      CHANNELS 3 Zrotation Xrotation Yrotation
                      JOINT LeftHandThumb2
                      {
                        OFFSET 3.68274 0 0
                        CHANNELS 3 Zrotation Xrotation Yrotation
                        JOINT LeftHandThumb3
                        {
                          OFFSET 2.55832 0 0
                          CHANNELS 3 Zrotation Xrotation Yrotation
                          End Site
                          {
                            OFFSET 2.194 0 0
                          }
                        }
                      }
                    }
                    JOINT LeftInHandIndex
                    {
                      OFFSET 3.22368 0.508421 1.97842
                      CHANNELS 3 Zrotation Xrotation Yrotation
                      JOINT LeftHandIndex1
                      {
                        OFFSET 5.21684 -0.091368 0.999158
                        CHANNELS 3 Zrotation Xrotation Yrotation
                        JOINT LeftHandIndex2
                        {
                          OFFSET 3.61937 0 0
                          CHANNELS 3 Zrotation Xrotation Yrotation
                          JOINT LeftHandIndex3
                          {
                            OFFSET 2.0521 0 0
                            CHANNELS 3 Zrotation Xrotation Yrotation
                            End Site
                            {
                              OFFSET 1.805 0 0
                            }
                          }
                        }
                      }
                    }
                    JOINT LeftInHandMiddle
                    {
                      OFFSET 3.38211 0.517263 0.756737
                      CHANNELS 3 Zrotation Xrotation Yrotation
                      JOINT LeftHandMiddle1
                      {
                        OFFSET 5.17411 -0.084 0.313895
                        CHANNELS 3 Zrotation Xrotation Yrotation
                        JOINT LeftHandMiddle2
                        {
                          OFFSET 3.94947 0 0
                          CHANNELS 3 Zrotation Xrotation Yrotation
                          JOINT LeftHandMiddle3
                          {
                            OFFSET 2.47579 0 0
                            CHANNELS 3 Zrotation Xrotation Yrotation
                            End Site
                            {
                              OFFSET 1.975 0 0
                            }
                          }
                        }
                      }
                    }
                    JOINT LeftInHandRing
                    {
                      OFFSET 3.36516 0.537895 -0.128947
                      CHANNELS 3 Zrotation Xrotation Yrotation
                      JOINT LeftHandRing1
                      {
                        OFFSET 4.63474 -0.022105 -0.478947
                        CHANNELS 3 Zrotation Xrotation Yrotation
                        JOINT LeftHandRing2
                        {
                          OFFSET 3.44238 0 0
                          CHANNELS 3 Zrotation Xrotation Yrotation
                          JOINT LeftHandRing3
                          {
                            OFFSET 2.3881 0 0
                            CHANNELS 3 Zrotation Xrotation Yrotation
                            End Site
                            {
                              OFFSET 1.857 0 0
                            }
                          }
                        }
                      }
                    }
                    JOINT LeftInHandPinky
                    {
                      OFFSET 3.16105 0.469368 -1.20179
                      CHANNELS 3 Zrotation Xrotation Yrotation
                      JOINT LeftHandPinky1
                      {
                        OFFSET 4.14105 -0.022105 -1.09053
                        CHANNELS 3 Zrotation Xrotation Yrotation
                        JOINT LeftHandPinky2
                        {
                          OFFSET 2.75653 0 0
                          CHANNELS 3 Zrotation Xrotation Yrotation
                          JOINT LeftHandPinky3
                          {
                            OFFSET 1.74189 0 0
                            CHANNELS 3 Zrotation Xrotation Yrotation
                            End Site
                            {
                              OFFSET 1.645 0 0
                            }
                          }
                        }
                      }
                    }
                  }
                }
              }
            }
          }
        }
      }
    }
  }
}
MOTION
Frames: 2
Frame Time: 0.00833333
4.500000000000000000e+02 0.000000000000000000e+00 0.000000000000000000e+00 0.000000000000000000e+00 0.000000000000000000e+00 0.000000000000000000e+00 2.766717944239810781e-02 8.554928152630326618e-04 -4.063427712466620087e-03 -8.260894988507176684e-02 -6.914489014578199810e-02 -1.738580082155742057e-01 1.488596030310210608e-02 1.626215386521949469e-02 2.083226520202222445e-02 -3.608347933316333189e-02 6.531331089644879656e-03 9.307593857213943001e-02 4.587241763399148298e-03 -3.676725358776059688e-02 1.676502972796010613e-02 5.206728330821780437e-02 -5.620896175488054869e-02 -6.539462692382218278e-02 -5.027179113175841985e-02 2.251281108230531944e-02 5.718824603088806108e-02 -4.143182452652659220e-02 2.630221427173439971e-02 3.255344447346283226e-02 -6.873285999475252372e-03 4.219428099642085275e-03 4.812874050409309511e-03 -1.252904756868048267e-02 1.273408558783311467e-02 8.475381974909266744e-03 1.531793282791885438e-03 -5.212209820352457388e-04 4.660705340451949848e-03 8.658724621585652328e-03 3.509764645525659255e-02 -8.758548319243890379e-02 2.755066096500129527e-02 -6.057803742656567986e-02 9.421038847655671677e-02 -1.328843138324880234e-02 -2.090336392064026660e-01 8.226359317976429664e-02 -5.980171328090215857e-03 2.239035166166945534e-01 1.428220360595588989e-01 -6.814291266313301509e-01 1.457680697941944326e-01 -8.119805708174885339e-01 1.803567847066749608e-01 -1.712467565097266220e-01 1.129697683384424389e-01 0.000000000000000000e+00 0.000000000000000000e+00 0.000000000000000000e+00 -3.660483023975709198e-15 -1.027982390693522288e-15 0.000000000000000000e+00 -6.744574123869043950e-15 1.761610060856878102e-15 0.000000000000000000e+00 -1.482155968219802784e-15 6.881568822405411764e-16 1.258470662646568971e-15 0.000000000000000000e+00 0.000000000000000000e+00 0.000000000000000000e+00 0.000000000000000000e+00 -1.896721251487245732e-15 -6.354162663114713359e-15 0.000000000000000000e+00 2.985488831738781113e-16 -7.956355372721599923e-15 -1.482155968219802784e-15 6.881568822405411764e-16 1.258470662646568971e-15 0.000000000000000000e+00 4.338952640505803362e-16 -1.292262274248968529e-15 0.000000000000000000e+00 -1.859783797522402590e-15 -2.861125779917771881e-15 0.000000000000000000e+00 -5.839364223929878153e-15 -9.097787926342434821e-15 -1.482155968219802784e-15 6.881568822405411764e-16 1.258470662646568971e-15 0.000000000000000000e+00 0.000000000000000000e+00 0.000000000000000000e+00 0.000000000000000000e+00 -1.977326616763741468e-15 -1.450300042839808650e-15 0.000000000000000000e+00 -3.857300579666679917e-15 -1.199029499479317735e-14 -1.482155968219802784e-15 6.881568822405411764e-16 1.258470662646568971e-15 0.000000000000000000e+00 0.000000000000000000e+00 0.000000000000000000e+00 0.000000000000000000e+00 -2.376308256218751909e-15 -7.533664235951561353e-15 0.000000000000000000e+00 1.725241652504319116e-16 -8.731214970230317434e-15 3.861730014649203402e-02 -2.536846719895316168e-02 -5.001024822082522636e-02 -1.351915084589641602e-01 -1.577566523106377627e-01 2.173987601666801939e-01 -2.828117568698953477e-01 -2.189950917144377063e-01 -1.725313308936708701e-01 -7.703915068327568672e-02 -1.238771451549542518e-02 7.253792251525088830e-02 0.000000000000000000e+00 0.000000000000000000e+00 0.000000000000000000e+00 9.126418714761025569e-16 2.940009717119911308e-16 0.000000000000000000e+00 2.349030282847277258e-15 3.027829677252378727e-15 0.000000000000000000e+00 -7.007942678505239239e-17 4.462256506930606011e-15 1.247637120582304798e-15 0.000000000000000000e+00 0.000000000000000000e+00 0.000000000000000000e+00 0.000000000000000000e+00 5.519582691492363074e-15 5.533835813945715574e-16 0.000000000000000000e+00 -6.559085503175050831e-16 -6.711981968598219906e-16 -7.007942678505239239e-17 4.462256506930606011e-15 1.247637120582304798e-15 0.000000000000000000e+00 4.832913388293464358e-15 2.347817947486637024e-15 0.000000000000000000e+00 3.009457380156192363e-15 7.647011728640788787e-15 0.000000000000000000e+00 5.716851556866401231e-16 4.450888513137274087e-15 -7.007942678505239239e-17 4.462256506930606011e-15 1.247637120582304798e-15 0.000000000000000000e+00 0.000000000000000000e+00 0.000000000000000000e+00 0.000000000000000000e+00 1.557796862872761394e-15 1.271517663415169199e-15 0.000000000000000000e+00 -4.997697409109221233e-16 2.986103959931141342e-15 -7.007942678505239239e-17 4.462256506930606011e-15 1.247637120582304798e-15 0.000000000000000000e+00 0.000000000000000000e+00 0.000000000000000000e+00 0.000000000000000000e+00 5.777919140168059892e-16 5.546482697261431954e-15 0.000000000000000000e+00 -1.254795943504345695e-15 1.576370202019822317e-15
4.500000000000000000e+02 0.000000000000000000e+00 0.000000000000000000e+00 0.000000000000000000e+00 0.000000000000000000e+00 0.000000000000000000e+00 1.984387551983657696e-02 -4.364542382831251843e-03 -2.968167336698426112e-02 -5.668582590059179777e-02 -4.819951936527775566e-02 -1.740639030786189367e-01 1.016971720573406693e-02 1.229759907268119373e-02 7.583213772657405871e-02 -4.014846078541221830e-02 -1.062444788307350665e-03 7.871159788550419201e-02 1.671663059400374171e-02 -1.024614104269432058e-02 4.830471641814331613e-02 5.065173582281187054e-02 -4.831196555870392872e-02 -6.270496097720450190e-02 -4.371811309130611140e-02 1.185221925837472330e-02 4.636598213218923875e-02 -4.905033484271897892e-02 2.365860564115923256e-02 4.923637655012454151e-02 -8.776130719851739023e-03 5.104805908237199444e-03 9.326302274191965863e-03 -1.634896074296639246e-02 1.107807787971804188e-02 1.503410942659684849e-02 1.681011709033212835e-03 -6.940084583230855114e-04 2.945266043270915700e-03 6.041227882416875389e-03 2.466922391222547278e-02 -5.945827154348979487e-02 3.127396810983610470e-02 -3.333883287994984096e-02 6.435076054545683932e-02 2.761858425998927821e-03 -1.772621389698228467e-01 4.041981977898643358e-02 -4.484402850409266450e-02 2.416586569281706232e-01 9.911079322094058786e-02 -7.024978563895273309e-01 1.218134616891566879e-01 -8.598282997936478322e-01 3.209467039402268962e-01 -2.272435783396367093e-01 3.366687768415959070e-01 0.000000000000000000e+00 0.000000000000000000e+00 0.000000000000000000e+00 -1.151933697597126861e-16 4.264371130021096313e-16 0.000000000000000000e+00 -4.988374778306006568e-15 2.641133724746874755e-15 0.000000000000000000e+00 -1.877926474353460027e-16 -1.215715241756466875e-15 -1.092295251332938555e-15 0.000000000000000000e+00 0.000000000000000000e+00 0.000000000000000000e+00 0.000000000000000000e+00 -1.913894235502909922e-15 -5.134196013852124960e-15 0.000000000000000000e+00 6.181524952891524691e-16 -2.422955034720802343e-15 -1.877926474353460027e-16 -1.215715241756466875e-15 -1.092295251332938555e-15 0.000000000000000000e+00 1.772805861924795822e-15 -1.202477963586161221e-15 0.000000000000000000e+00 2.742685125809826750e-16 2.857502587600783997e-15 0.000000000000000000e+00 -1.294054064912173800e-15 -3.430590840555912493e-15 -1.877926474353460027e-16 -1.215715241756466875e-15 -1.092295251332938555e-15 0.000000000000000000e+00 0.000000000000000000e+00 0.000000000000000000e+00 0.000000000000000000e+00 -7.322700582753259793e-16 3.133354341407952171e-15 0.000000000000000000e+00 -4.830064033952482156e-15 -9.991104757432513455e-15 -1.877926474353460027e-16 -1.215715241756466875e-15 -1.092295251332938555e-15 0.000000000000000000e+00 0.000000000000000000e+00 0.000000000000000000e+00 0.000000000000000000e+00 -5.091403507508856955e-16 -2.623838471204308124e-15 0.000000000000000000e+00 8.915351146563672390e-16 -3.042196281250689948e-15 4.961911571802975207e-02 -4.398056077404832037e-02 -8.139314013065716835e-02 -1.553379930672709186e-01 -1.875668353541419808e-01 2.500276715731556409e-01 -1.306938947208256263e-01 -3.455427395119200495e-01 -4.154010414164897858e-02 -6.810416581952816184e-02 2.297143067583922726e-01 1.163260875867014182e-01 0.000000000000000000e+00 0.000000000000000000e+00 0.000000000000000000e+00 3.842127017846392098e-15 3.444941008522361209e-16 0.000000000000000000e+00 4.277085871488048048e-16 3.204216082679581567e-15 0.000000000000000000e+00 1.727621017370685455e-16 4.155213185925781269e-15 1.892320676420047673e-15 0.000000000000000000e+00 0.000000000000000000e+00 0.000000000000000000e+00 0.000000000000000000e+00 3.649843396102565191e-15 9.560779070335494351e-16 0.000000000000000000e+00 -7.046371315160464675e-16 -3.114541623858765305e-16 1.727621017370685455e-16 4.155213185925781269e-15 1.892320676420047673e-15 0.000000000000000000e+00 4.228432690837433704e-15 9.484966145608014427e-16 0.000000000000000000e+00 2.358931859154693646e-15 5.204466549975193255e-15 0.000000000000000000e+00 4.074413228638371977e-17 1.512262075136592711e-15 1.727621017370685455e-16 4.155213185925781269e-15 1.892320676420047673e-15 0.000000000000000000e+00 0.000000000000000000e+00 0.000000000000000000e+00 0.000000000000000000e+00 2.098188192953177527e-15 9.185440129337342144e-17 0.000000000000000000e+00 3.187644624898763133e-16 1.040952732768035791e-15 1.727621017370685455e-16 4.155213185925781269e-15 1.892320676420047673e-15 0.000000000000000000e+00 0.000000000000000000e+00 0.000000000000000000e+00 0.000000000000000000e+00 -2.637137828189789234e-16 1.213101072410575847e-15 0.000000000000000000e+00 -4.629843440795574784e-16 -1.302648713191991953e-15
